<svg width="1409" height="632" viewBox="0 0 1409 632" fill="none" xmlns="http://www.w3.org/2000/svg">
<path d="M2.59273 349.873C19.2497 485.581 161.85 632 318.622 632C475.394 632 629 586.058 629 428.799C629 338.1 524.37 377.894 428.167 338.1C358.473 309.271 282.542 200.121 205.164 173.707C59.5388 123.997 -15.2301 204.667 2.59273 349.873Z" fill="#F5DBCA"/>
<path d="M1384 64.5C1444 126 1385.5 171.74 1307.5 157.74C1204.22 157.74 1346.28 268.382 1257.78 255.882C1155.51 241.439 1089.75 125.567 1150.04 45.8825C1210.3 -33.7704 1324 3 1384 64.5Z" fill="#F5DBCA"/>
</svg>
