<svg width="104" height="52" viewBox="0 0 104 52" fill="none" xmlns="http://www.w3.org/2000/svg">
<path d="M10.0648 43.7206C9.50029 43.7206 8.93599 43.7217 8.3715 43.7206C8.19607 43.7206 8.02065 43.7128 7.84522 43.7068C7.59237 43.6981 7.34894 43.6422 7.10942 43.5695C6.50964 43.3878 6.10979 43.001 5.84812 42.4713C5.72653 42.2229 5.65482 41.9553 5.63663 41.6822C5.61628 41.41 5.61249 41.137 5.62527 40.8644C5.6433 40.4846 5.70367 40.1094 5.76247 39.7337C5.82402 39.3467 5.91594 38.9648 5.9865 38.5795C6.04629 38.2525 6.139 37.9318 6.18584 37.6026C6.22315 37.4893 6.24753 37.3726 6.25856 37.2544C6.32794 37.0373 6.33206 36.8095 6.37616 36.5885C6.39694 36.4842 6.39713 36.3761 6.40478 36.2697C6.40616 36.246 6.40378 36.2223 6.39772 36.1993C6.38596 36.1522 6.36381 36.1088 6.31716 36.0846C6.21817 36.0335 6.11378 35.9923 6.00571 35.9619C5.57117 35.8378 5.16818 35.6467 4.76931 35.4456C4.66974 35.3956 4.57331 35.3403 4.47824 35.2825C4.40584 35.2357 4.32915 35.1952 4.24911 35.1613C4.20353 35.1415 4.16003 35.1178 4.11916 35.0903C3.6068 34.7683 3.11228 34.423 2.6505 34.0388C2.13187 33.6074 1.64695 33.1431 1.23299 32.6178C0.998544 32.3244 0.79088 32.0127 0.612236 31.686C0.503845 31.4847 0.435832 31.2673 0.327441 31.0667C0.285496 30.9301 0.241394 30.7941 0.202193 30.6567C0.14986 30.4738 0.0916464 30.2923 0.0510734 30.1062C0.0264201 30.0021 0.0121149 29.8961 0.00834436 29.7894C0.00481627 29.5878 -0.000868149 29.3863 0.000111877 29.1846C0.000111877 29.0662 0.0106962 28.9477 0.0197124 28.8296C0.0240636 28.7824 0.0339912 28.7358 0.0493094 28.6906C0.100293 28.5316 0.134048 28.3681 0.150056 28.2026C0.164887 28.073 0.187531 27.9442 0.217874 27.817C0.252959 27.6665 0.280987 27.5145 0.311956 27.3633C0.316675 27.328 0.323945 27.2931 0.333713 27.2587C0.402315 27.0673 0.437008 26.868 0.489145 26.6726C0.538539 26.4889 0.573427 26.3019 0.632033 26.1203C0.75728 25.7347 0.828038 25.3362 0.957989 24.9525C0.992094 24.8513 1.00738 24.7445 1.03639 24.6415C1.20241 24.058 1.34804 23.4695 1.5021 22.8832C1.56561 22.6422 1.62931 22.4012 1.67968 22.156C1.70595 22.0283 1.73848 21.9012 1.77768 21.7764C1.80983 21.6737 1.83354 21.5697 1.85746 21.4656C1.8947 21.3034 1.92724 21.1399 1.97114 20.9794C2.10932 20.4743 2.21693 19.9625 2.34884 19.4561C2.42979 19.1452 2.5178 18.8363 2.5817 18.5219C2.58667 18.4987 2.59322 18.4759 2.6013 18.4535C2.68832 18.2053 2.73262 17.9475 2.79338 17.6935C2.80181 17.6589 2.80573 17.6231 2.81612 17.589C2.94646 17.1679 3.01212 16.7319 3.14933 16.3121C3.175 16.2329 3.18559 16.1497 3.20499 16.0689C3.31613 15.6066 3.43608 15.1463 3.55525 14.6859C3.66561 14.2596 3.76576 13.8314 3.87298 13.4047C3.97098 13.0125 4.08271 12.6231 4.1615 12.2266C4.16372 12.2149 4.16673 12.2034 4.17052 12.1921C4.25401 11.955 4.29106 11.7079 4.34692 11.4649C4.38161 11.3142 4.41533 11.1635 4.44963 11.0129C4.47315 10.9087 4.52039 10.809 4.52705 10.7018C4.63113 10.299 4.73991 9.89737 4.89476 9.50867C4.94317 9.38671 4.99491 9.26567 5.05156 9.14667C5.29681 8.62472 5.65473 8.157 6.10234 7.77354C6.4935 7.4391 6.92658 7.15131 7.39186 6.91663C7.87913 6.66788 8.39149 6.47733 8.91894 6.31829C9.50525 6.14373 10.1039 6.0087 10.7104 5.91421C11.1926 5.83692 11.6781 5.78335 12.1656 5.74035C12.9666 5.66935 13.7687 5.66787 14.5713 5.67955C15.3246 5.69067 16.0741 5.75369 16.8205 5.84748C17.2682 5.90309 17.7129 5.97816 18.1545 6.06825C18.6818 6.17557 19.2043 6.3005 19.72 6.45119C20.7171 6.74295 21.6801 7.1107 22.6013 7.57687C23.9043 8.23601 25.0839 9.05232 26.1192 10.0523C26.4011 10.3223 26.6625 10.6109 26.9014 10.9157C27.1851 11.2813 27.4075 11.6781 27.5924 12.095C27.6214 12.1606 27.6478 12.2271 27.6762 12.2929C27.7167 12.3798 27.7458 12.471 27.7631 12.5645C27.7707 12.611 27.7889 12.6561 27.8001 12.7022C27.8505 12.9098 27.9177 13.1144 27.9273 13.3293C27.9936 13.5489 27.9861 13.7754 27.9946 14.0003C28.0067 14.3085 27.9961 14.617 27.9859 14.925C27.9832 15.0077 27.9677 15.0898 27.9569 15.1721C27.9461 15.2544 27.9305 15.3363 27.923 15.4188C27.9091 15.5723 27.9034 15.7263 27.8568 15.8759C27.8391 15.9315 27.8419 15.9934 27.8329 16.0522C27.8221 16.1222 27.8091 16.1923 27.7962 16.2622C27.7854 16.3206 27.7674 16.3782 27.7631 16.437C27.752 16.579 27.7233 16.7193 27.6776 16.855C27.6218 17.0253 27.5975 17.202 27.5551 17.3749C27.5159 17.5363 27.4636 17.6946 27.4322 17.8583C27.4032 18.0094 27.3495 18.156 27.3095 18.3054C27.2664 18.4659 27.2268 18.6275 27.1851 18.7884C27.1221 19.0294 27.0626 19.272 27 19.5137C26.8955 19.9163 26.7986 20.3207 26.7094 20.7267C26.5855 21.2837 26.4608 21.8404 26.3352 22.397C26.2721 22.675 26.2015 22.9514 26.1372 23.2291C26.0968 23.4026 26.0604 23.5768 26.0249 23.7512C25.999 23.8791 25.9487 24.002 25.9385 24.133C25.8712 24.3253 25.8561 24.5282 25.8034 24.7234C25.7538 24.9069 25.714 25.0928 25.6662 25.2767C25.6329 25.4029 25.6094 25.5318 25.5843 25.6598C25.5451 25.858 25.4978 26.0543 25.4451 26.2495C25.4204 26.3421 25.4059 26.4348 25.3848 26.5275C25.2146 27.2445 25.0564 27.9638 24.8877 28.681C24.8444 28.8664 24.8024 29.0517 24.7371 29.2315C24.7034 29.321 24.6836 29.4147 24.6783 29.5095C24.6736 29.6169 24.6476 29.7203 24.6229 29.8246C24.5351 30.1954 24.4518 30.5661 24.3667 30.9368C24.3559 30.9831 24.3457 31.0295 24.3342 31.0758C24.2967 31.2254 24.2324 31.3683 24.2187 31.5244C24.2064 31.6662 24.1403 31.7993 24.1354 31.9429C24.0607 32.2914 23.9847 32.6397 23.8869 32.9832C23.8606 33.0758 23.8498 33.1696 23.8226 33.2612C23.693 33.6938 23.5664 34.1272 23.3873 34.5452C23.2881 34.7767 23.1832 35.0041 23.0325 35.2104C23.0103 35.2395 22.9912 35.2705 22.9755 35.3031C22.9041 35.4575 22.7896 35.5848 22.6787 35.7125C22.3669 36.0705 21.9906 36.3736 21.5672 36.6076C21.222 36.8014 20.8565 36.9607 20.4766 37.0831C20.1199 37.1971 19.7629 37.3083 19.3962 37.3887C18.8474 37.5092 18.2943 37.6182 17.7325 37.6762C17.6078 37.6894 17.4849 37.7152 17.366 37.7532C17.3297 37.7636 17.2971 37.7829 17.2713 37.8091C17.2455 37.8354 17.2275 37.8676 17.2192 37.9025C17.1829 38.0406 17.1478 38.1791 17.1188 38.3187C17.0532 38.6327 16.9924 38.9476 16.9277 39.2618C16.8965 39.4127 16.8658 39.5639 16.8258 39.7131C16.8191 39.7378 16.7552 39.7561 16.729 39.7402C16.7066 39.7301 16.6855 39.7177 16.666 39.7031C16.5706 39.609 16.4761 39.5139 16.3836 39.4171C16.2911 39.3204 16.1703 39.2533 16.0427 39.2006C15.8117 39.1028 15.5524 39.0817 15.3071 39.1409C15.2342 39.158 15.1601 39.1721 15.0884 39.1932C14.7675 39.2879 14.5004 39.4544 14.3075 39.7198C14.1926 39.8755 14.0958 40.0425 14.0188 40.2179C13.931 40.4145 13.8584 40.617 13.8016 40.8236C13.7836 40.8926 13.7714 40.9628 13.7581 41.0327C13.7424 41.1144 13.7293 41.1964 13.714 41.2781C13.6768 41.4788 13.6728 41.6785 13.726 41.8779C13.7595 42.0043 13.7848 42.1326 13.8185 42.2592C13.902 42.5806 14.0907 42.8425 14.3391 43.0687C14.4935 43.2095 14.6723 43.3185 14.8642 43.4103C14.9647 43.4585 15.0663 43.5048 15.1656 43.5552C15.1757 43.5617 15.1832 43.5713 15.1868 43.5824C15.1903 43.5934 15.1898 43.6053 15.1852 43.616C15.1825 43.6276 15.1759 43.6381 15.1664 43.6459C15.1569 43.6537 15.145 43.6584 15.1325 43.6594C15.0955 43.6653 15.0588 43.6742 15.0218 43.6789C14.8095 43.7056 14.5962 43.7017 14.383 43.6954C14.3203 43.6941 14.2579 43.6863 14.197 43.6722C13.8034 43.5771 13.4404 43.4312 13.1436 43.1532C12.6268 42.669 12.3673 42.0857 12.3481 41.4023C12.3446 41.2597 12.3536 41.1172 12.3747 40.976C12.4139 40.7057 12.4631 40.4369 12.517 40.1689C12.6346 39.5864 12.7522 39.004 12.8698 38.4217C12.9151 38.2006 12.9586 37.9789 12.9921 37.7561C13.0578 37.3218 13.1207 36.8868 13.1129 36.4464C13.1125 36.3634 13.1064 36.2806 13.0948 36.1984C13.0809 36.1092 13.0188 36.0516 12.9302 36.0206C12.9068 36.012 12.8825 36.0058 12.8577 36.0021C12.7214 35.9834 12.5833 35.9793 12.4461 35.99C12.38 35.9954 12.2971 36.0564 12.2777 36.1164C12.274 36.1277 12.2689 36.1389 12.2661 36.1504C12.1471 36.6597 12.0309 37.1698 11.9468 37.6857C11.8627 38.2015 11.7818 38.7174 11.7071 39.2343C11.6699 39.4927 11.6287 39.7509 11.5805 40.0077C11.5252 40.3 11.489 40.5943 11.4482 40.8883C11.4033 41.2179 11.3924 41.5509 11.4157 41.8826C11.4365 42.204 11.54 42.5158 11.7171 42.7908C11.8277 42.9645 11.9623 43.12 12.1023 43.2727C12.2089 43.3891 12.3375 43.4857 12.4314 43.6138C12.4468 43.6353 12.4229 43.6972 12.3957 43.7026C12.3718 43.7093 12.3474 43.7143 12.3228 43.7174C12.2352 43.7207 12.1473 43.723 12.0595 43.723C11.3948 43.723 10.7301 43.723 10.0654 43.723L10.0648 43.7206ZM9.60456 17.45C9.99324 17.45 10.3821 17.447 10.771 17.45C11.4106 17.4557 12.0501 17.465 12.6897 17.4744C13.254 17.4826 13.8183 17.493 14.3826 17.5026C14.6962 17.5078 15.0078 17.5489 15.3167 17.5995C15.8134 17.6809 16.2889 17.8296 16.7488 18.0246C17.0006 18.1313 17.2466 18.2494 17.4897 18.373C18.0201 18.6426 18.5505 18.9117 19.081 19.1805C19.5236 19.4042 19.963 19.6318 20.3954 19.8735C20.4934 19.9278 20.5875 19.9847 20.6834 20.042C20.886 20.1616 20.899 20.2088 20.8831 20.4227C20.8684 20.612 20.8427 20.8004 20.8061 20.987C20.7626 21.2083 20.7039 21.4276 20.5995 21.6322C20.5669 21.6961 20.5307 21.7586 20.4923 21.8198C20.4677 21.8614 20.4298 21.8946 20.384 21.9146C20.3382 21.9346 20.2869 21.9403 20.2375 21.931C20.0391 21.9006 19.8457 21.8463 19.662 21.7694C19.4088 21.6657 19.1629 21.5468 18.9258 21.4133C18.6886 21.2802 18.4554 21.141 18.2202 21.0038C17.7827 20.7482 17.3411 20.4989 16.8873 20.2698C16.456 20.0513 16.0078 19.864 15.5467 19.7093C14.86 19.478 14.1372 19.3569 13.4082 19.351C12.9943 19.3477 12.5805 19.3391 12.1665 19.3371C11.1506 19.3325 10.1346 19.3293 9.11867 19.3275C8.16543 19.3267 7.21219 19.3288 6.25895 19.3338C5.84518 19.3358 5.43122 19.3432 5.01765 19.354C4.75441 19.3606 4.49138 19.3773 4.22853 19.391C4.17854 19.3943 4.12902 19.4024 4.08074 19.4151C4.05639 19.4212 4.0338 19.4324 4.01466 19.4478C3.99552 19.4633 3.98032 19.4827 3.9702 19.5045C3.9484 19.5472 3.93075 19.5917 3.91747 19.6374C3.80693 20.0392 3.69769 20.4412 3.58975 20.8433C3.58229 20.8781 3.57718 20.9134 3.57446 20.9488C3.56799 20.9996 3.62209 21.0719 3.6756 21.0832C3.71168 21.0929 3.74852 21.0999 3.78576 21.1041C3.9359 21.1134 4.08623 21.1245 4.23657 21.1264C4.88868 21.1345 5.54079 21.1449 6.1929 21.1449C7.1839 21.1462 8.17471 21.1408 9.16551 21.1382L9.73001 21.136C10.8462 21.1324 11.9624 21.129 13.0788 21.1258C13.3798 21.1265 13.6805 21.145 13.979 21.1814C14.6562 21.26 15.3044 21.4366 15.934 21.6806C16.3511 21.8443 16.7564 22.0339 17.1472 22.2481C17.5392 22.4604 17.9277 22.6774 18.3162 22.8949C18.8021 23.167 19.2925 23.4307 19.8047 23.6567C19.8501 23.6766 19.8941 23.6994 19.9364 23.7247C19.9629 23.7407 19.985 23.7623 20.0011 23.7878C20.0171 23.8134 20.0267 23.8421 20.0289 23.8717C20.0327 23.8951 20.0349 23.9188 20.0358 23.9425C20.0378 24.2988 19.989 24.6538 19.8907 24.9977C19.8524 25.1355 19.7977 25.2688 19.7278 25.395C19.71 25.4263 19.6898 25.4563 19.6675 25.4849C19.62 25.5449 19.5565 25.5822 19.4762 25.5812C19.4136 25.5813 19.3512 25.5751 19.29 25.5627C19.1435 25.5293 19.0014 25.4805 18.8664 25.4172C18.6508 25.3195 18.4399 25.2165 18.2333 25.104C17.8529 24.8967 17.4689 24.6949 17.092 24.4826C16.6389 24.228 16.1758 23.9912 15.7025 23.7723C15.2189 23.546 14.7161 23.3586 14.1993 23.212C13.715 23.0767 13.2234 22.9955 12.7167 23.0066C12.6164 23.0089 12.516 23.0066 12.4157 23.0066L8.38953 23.014C6.92197 23.0166 5.45448 23.0192 3.98706 23.0218C3.7738 23.0218 3.56074 23.0246 3.34749 23.0279C3.29747 23.0291 3.24761 23.0338 3.19833 23.042C3.17344 23.0457 3.14983 23.0549 3.1294 23.0689C3.10897 23.0828 3.09229 23.1011 3.08073 23.1223C3.05238 23.1751 3.0296 23.2304 3.01271 23.2874C2.95391 23.4815 2.90001 23.6767 2.84532 23.8711C2.7877 24.0776 2.73112 24.2843 2.67558 24.4912C2.66343 24.5368 2.65951 24.5838 2.65167 24.6311C2.64579 24.6659 2.69558 24.7356 2.73007 24.7423C2.76654 24.7507 2.80362 24.7566 2.84101 24.7597C2.96626 24.7625 3.0917 24.7629 3.21715 24.7622C4.09505 24.7575 4.97296 24.7503 5.85106 24.7477C6.74145 24.745 7.63197 24.7446 8.52262 24.7466C9.63984 24.7501 10.7551 24.7581 11.8714 24.7651C12.0478 24.7662 12.2224 24.7707 12.398 24.774C12.6991 24.7815 12.9992 24.8084 13.2963 24.8546C13.8169 24.9327 14.3274 25.0626 14.8191 25.2422C15.2295 25.3905 15.6282 25.564 16.0206 25.7505C16.4579 25.9583 16.883 26.187 17.3089 26.4146C17.7892 26.6713 18.2605 26.9433 18.7504 27.1839C18.8059 27.2113 18.8595 27.2423 18.9107 27.2765C19.0844 27.3926 19.188 27.5475 19.1988 27.7523C19.2008 27.7878 19.2045 27.8233 19.2033 27.8589C19.2011 28.0014 19.1831 28.1432 19.1496 28.2821C19.1061 28.4552 19.0526 28.6259 18.9893 28.7935C18.968 28.8493 18.9428 28.9036 18.9138 28.9562C18.8382 29.0932 18.7178 29.1689 18.5532 29.1757C18.5031 29.1776 18.453 29.1753 18.4034 29.1687C18.3041 29.1546 18.2068 29.1302 18.1132 29.0958C17.9486 29.0377 17.7889 28.9678 17.6357 28.8866C17.384 28.7535 17.1339 28.6175 16.8854 28.4788C16.6149 28.3286 16.3479 28.1733 16.0778 28.0224C15.7113 27.8204 15.3389 27.6239 14.9551 27.446C14.5733 27.2661 14.1794 27.1101 13.7759 26.9792C13.1054 26.7655 12.4196 26.6385 11.7087 26.6522C11.6211 26.6541 11.5323 26.6522 11.4454 26.6522C10.3415 26.6563 9.23777 26.6603 8.13413 26.6643C6.40341 26.6692 4.67255 26.6736 2.94156 26.6775C2.75359 26.6775 2.56543 26.6817 2.37726 26.6864C2.32727 26.6878 2.27756 26.694 2.22889 26.7049C2.20439 26.7105 2.18157 26.7213 2.16223 26.7366C2.14288 26.7518 2.12753 26.7711 2.11736 26.7929C2.09761 26.8365 2.08206 26.8817 2.07091 26.9279C2.01224 27.1462 1.95448 27.3648 1.89764 27.5835C1.82002 27.883 1.74345 28.1827 1.66792 28.4827C1.65874 28.5291 1.6531 28.5761 1.65106 28.6233C1.64832 28.6545 1.70673 28.722 1.74025 28.7275C1.77676 28.7355 1.81383 28.741 1.85119 28.7438C1.95134 28.7462 2.05189 28.747 2.15205 28.7448C2.84173 28.73 3.53141 28.7148 4.22109 28.6992C4.37142 28.6956 4.52195 28.6893 4.6719 28.6884C5.6629 28.6823 6.65371 28.673 7.64451 28.6734C8.3468 28.6734 9.04928 28.676 9.75118 28.7075C10.4025 28.7368 11.0548 28.7483 11.7044 28.8106C11.7916 28.8189 11.8796 28.8204 11.967 28.8272C12.2414 28.8491 12.5174 28.8667 12.7914 28.896C13.1786 28.9347 13.5584 29.0236 13.92 29.1601C14.2452 29.2853 14.57 29.4119 14.872 29.5842C14.9256 29.6151 14.9818 29.6417 15.04 29.6639C15.2968 29.7613 15.5376 29.8886 15.7781 30.0161C16.2813 30.2829 16.785 30.5487 17.285 30.8204C17.6547 31.0211 18.0253 31.2206 18.3799 31.4452C18.4434 31.4833 18.5095 31.5173 18.5779 31.5468C18.803 31.6512 19.021 31.7688 19.2306 31.899C19.3661 31.9847 19.5066 32.063 19.6514 32.1337C19.8643 32.2352 20.0716 32.3459 20.2806 32.454C20.5775 32.6078 20.8746 32.7612 21.172 32.914C21.4252 33.0451 21.6883 33.1572 21.9503 33.271C21.9852 33.2843 22.0207 33.296 22.0568 33.3059C22.1122 33.3244 22.1865 33.2927 22.2136 33.2382C22.2369 33.1966 22.2566 33.1532 22.2724 33.1085C22.3032 33.0059 22.3312 32.9021 22.3553 32.7982C22.4468 32.4166 22.5371 32.0347 22.6262 31.6525C22.6348 31.6179 22.6404 31.5828 22.643 31.5474C22.6469 31.4851 22.6272 31.4278 22.5729 31.3909C22.5118 31.3498 22.4479 31.3126 22.3816 31.2797C21.9939 31.0849 21.6052 30.8921 21.2173 30.6979C21.1508 30.6647 21.086 30.6285 21.0213 30.5922C20.9937 30.5777 20.9708 30.5565 20.9549 30.5307C20.939 30.5049 20.9308 30.4756 20.9311 30.4458C20.9277 30.3629 20.9308 30.2799 20.9403 30.1974C20.9662 30.0213 20.9944 29.8452 21.0332 29.6714C21.083 29.4387 21.1547 29.2107 21.2477 28.9902C21.267 28.9465 21.2901 28.9043 21.3167 28.8641C21.3306 28.8444 21.3489 28.8277 21.3702 28.8151C21.3915 28.8026 21.4154 28.7944 21.4403 28.7913C21.4774 28.7853 21.5153 28.7843 21.5527 28.7883C21.7399 28.8089 21.9224 28.8583 22.0928 28.9344C22.2067 28.9837 22.319 29.0371 22.4296 29.0929C22.5734 29.1653 22.7142 29.2432 22.8578 29.3153C22.9029 29.3358 22.9492 29.3536 22.9966 29.3687C23.0162 29.3761 23.0856 29.3518 23.0993 29.3347C23.1303 29.2973 23.1529 29.2543 23.1658 29.2083C23.2693 28.8172 23.3723 28.426 23.4749 28.0346C23.4841 28.0001 23.4884 27.9646 23.4878 27.929C23.4866 27.8812 23.4741 27.8341 23.4333 27.8013C23.3964 27.7694 23.3563 27.741 23.3136 27.7164C23.1274 27.618 22.94 27.5219 22.7522 27.4263C22.4974 27.2966 22.2469 27.1631 22.0044 27.015C21.9523 26.9823 21.9026 26.9462 21.8559 26.9069C21.8188 26.8742 21.7955 26.83 21.79 26.7824C21.7853 26.7591 21.7832 26.7354 21.7835 26.7117C21.8031 26.3551 21.8529 26.0035 21.966 25.6615C22.0018 25.5478 22.049 25.4375 22.1068 25.3321C22.1242 25.3005 22.1439 25.2699 22.1656 25.2407C22.1865 25.2111 22.2145 25.1863 22.2472 25.1685C22.2798 25.1506 22.3164 25.1401 22.3541 25.1377C22.3916 25.1348 22.4293 25.1356 22.4666 25.1399C22.6539 25.1612 22.8342 25.2197 22.9958 25.3116C23.0813 25.361 23.1668 25.4104 23.2522 25.4598C23.3271 25.5032 23.4006 25.5488 23.4772 25.5896C23.5964 25.6556 23.7247 25.7055 23.8585 25.7379C23.8956 25.7442 23.9338 25.7379 23.9666 25.7202C23.9993 25.7025 24.0245 25.6745 24.0376 25.6411C24.0507 25.6078 24.0617 25.5739 24.0705 25.5394C24.1478 25.167 24.2242 24.7945 24.2999 24.4216C24.3116 24.3634 24.3192 24.3045 24.3226 24.2454C24.3257 24.2156 24.3204 24.1857 24.307 24.1586C24.2937 24.1315 24.273 24.1083 24.2469 24.0913C24.1844 24.0519 24.1195 24.016 24.0525 23.9838C23.6956 23.8103 23.3375 23.6391 22.9807 23.4648C22.8916 23.4215 22.8043 23.3744 22.7195 23.3243C22.6987 23.311 22.6812 23.2935 22.6683 23.273C22.6555 23.2526 22.6475 23.2297 22.645 23.2061C22.6421 23.1945 22.6399 23.1828 22.6385 23.171C22.6234 22.7911 22.6715 22.4112 22.7812 22.0454C22.8101 21.9421 22.8511 21.8422 22.9033 21.7475C22.9265 21.7054 22.9536 21.6653 22.9843 21.6277C23.0591 21.5403 23.1558 21.4898 23.2783 21.4954C23.3283 21.4976 23.3781 21.5038 23.427 21.5139C23.5377 21.5361 23.6444 21.573 23.7442 21.6233C23.8653 21.6856 23.9855 21.7497 24.1062 21.8129C24.2377 21.8819 24.3685 21.9523 24.5017 22.0185C24.5471 22.0384 24.5942 22.0543 24.6427 22.0659C24.6991 22.0822 24.7816 22.0474 24.802 22.0003C24.8131 21.9791 24.8226 21.9572 24.8304 21.9347C24.9366 21.5319 25.0421 21.129 25.147 20.7262C25.1598 20.6802 25.163 20.6324 25.1566 20.5853C25.1511 20.5497 25.1312 20.5176 25.1009 20.4958C25.071 20.4744 25.0389 20.4558 25.0053 20.4402C24.8828 20.3801 24.7569 20.3256 24.6376 20.2607C24.431 20.1495 24.2246 20.0359 24.0104 19.9364C23.954 19.9104 23.8997 19.8806 23.8481 19.847C23.6295 19.7041 23.5019 19.5078 23.4723 19.2572C23.4504 19.0799 23.4619 18.9004 23.506 18.7269C23.5758 18.4494 23.6928 18.1845 23.8524 17.9425C23.859 17.9325 23.8679 17.9239 23.8755 17.9143C23.8911 17.8957 23.9106 17.8804 23.9327 17.8693C23.9548 17.8581 23.9791 17.8513 24.0041 17.8494C24.0415 17.8456 24.0792 17.8456 24.1166 17.8494C24.2921 17.8643 24.4626 17.9129 24.6176 17.9923C24.7722 18.0705 24.9228 18.1564 25.0755 18.2383C25.1844 18.2967 25.2928 18.3564 25.4042 18.411C25.4498 18.4304 25.4972 18.4456 25.5459 18.4566C25.5872 18.4683 25.6554 18.4381 25.6739 18.401C25.692 18.3701 25.7065 18.3374 25.7172 18.3035C25.8042 17.9205 25.8899 17.5374 25.9743 17.1543C25.9839 17.1078 25.99 17.0606 25.9926 17.0133C25.9955 16.9836 25.9903 16.9537 25.9775 16.9264C25.9646 16.8992 25.9446 16.8755 25.9193 16.8577C25.8688 16.8227 25.8165 16.7903 25.7625 16.7604C25.3963 16.5536 25.0294 16.3484 24.6648 16.1408C24.579 16.092 24.4953 16.0394 24.4147 15.9834C24.3742 15.9543 24.3468 15.9118 24.3381 15.8644C24.3285 15.8179 24.3224 15.7708 24.3199 15.7235C24.3048 15.4481 24.3545 15.1797 24.4251 14.9145C24.4658 14.7527 24.5239 14.5954 24.5986 14.4449C24.6204 14.4024 24.6453 14.3613 24.6731 14.3219C24.6904 14.2971 24.7132 14.2761 24.7399 14.2603C24.7666 14.2446 24.7965 14.2344 24.8277 14.2305C24.9772 14.2079 25.1303 14.2239 25.2711 14.2766C25.3757 14.3166 25.4768 14.3645 25.5733 14.4197C25.6923 14.4857 25.8111 14.5521 25.9312 14.6164C26.0508 14.6819 26.1797 14.7307 26.314 14.7613C26.3386 14.7651 26.3634 14.7671 26.3883 14.7675C26.4275 14.7708 26.4937 14.7267 26.5024 14.6883C26.5156 14.6428 26.524 14.5962 26.5275 14.5491C26.5314 14.1563 26.4937 13.7678 26.392 13.3856C26.2532 12.8672 26.0283 12.373 25.7256 11.9213C25.3352 11.3341 24.8487 10.8256 24.2989 10.3693C23.8356 9.98716 23.3388 9.64289 22.8139 9.34018C21.8696 8.79134 20.8704 8.35334 19.8243 8.00913C19.5164 7.90774 19.2051 7.81654 18.8891 7.73888C18.6586 7.68216 18.4305 7.61747 18.1976 7.56872C17.6337 7.45346 17.0637 7.36634 16.49 7.30773C16.0416 7.25973 15.5921 7.21617 15.1403 7.20579C15.0902 7.20467 15.04 7.20171 14.99 7.19782C14.5519 7.16408 14.1129 7.16075 13.674 7.16538C12.9465 7.16977 12.2198 7.21123 11.497 7.28957C10.6857 7.38002 9.88583 7.5183 9.10808 7.7626C8.78644 7.86261 8.47187 7.98192 8.16628 8.11979C7.89555 8.24466 7.63835 8.39421 7.39833 8.56631C7.2082 8.7028 7.03407 8.85816 6.87892 9.02971C6.65529 9.27141 6.48603 9.55363 6.38145 9.85919C6.36396 9.91601 6.3497 9.97367 6.33873 10.0319C6.32657 10.0861 6.37793 10.1593 6.43144 10.1687C6.46786 10.177 6.50478 10.1832 6.54198 10.1873C6.72976 10.1982 6.91733 10.211 7.1053 10.2162C8.32171 10.2501 9.53832 10.241 10.7549 10.2268C11.5074 10.218 12.2597 10.1988 13.0121 10.1908C13.6142 10.1845 14.2162 10.1875 14.8183 10.1873C15.2197 10.1873 15.6209 10.1979 16.0218 10.2192C16.197 10.2284 16.3728 10.2377 16.5465 10.2609C17.0191 10.3214 17.4843 10.4254 17.9356 10.5715C18.4569 10.7433 18.9638 10.9518 19.4521 11.1954C19.7296 11.333 20.0046 11.4751 20.277 11.6218C20.9419 11.9799 21.6044 12.3417 22.2677 12.7022C22.322 12.7317 22.3763 12.7613 22.4296 12.7928C22.4511 12.8053 22.4709 12.8203 22.4884 12.8375C22.5141 12.8633 22.5389 12.8911 22.5435 12.9282C22.5491 12.9752 22.556 13.0223 22.557 13.0696C22.5631 13.3682 22.5111 13.6601 22.436 13.9489C22.4026 14.0878 22.3543 14.2231 22.292 14.3528C22.2597 14.4171 22.2233 14.4794 22.183 14.5395C22.1609 14.5757 22.1278 14.6049 22.088 14.6233C22.0483 14.6417 22.0036 14.6484 21.9598 14.6427C21.8974 14.6375 21.8356 14.6271 21.7751 14.6118C21.6299 14.5741 21.4889 14.5229 21.3543 14.459C21.1314 14.3502 20.9068 14.2444 20.6879 14.1287C20.3266 13.9376 19.9695 13.7395 19.6098 13.5447C19.1639 13.3022 18.7133 13.0679 18.2504 12.8555C17.789 12.6406 17.3112 12.4586 16.8211 12.3111C16.3391 12.1689 15.8467 12.085 15.3418 12.0777C14.4262 12.0654 13.5107 12.0547 12.5952 12.0457C12.0435 12.0399 11.4917 12.0358 10.9398 12.0336C10.7633 12.0327 10.5885 12.0357 10.4131 12.0375C10.2759 12.039 10.1371 12.0433 9.99912 12.0431C8.7198 12.0412 7.44047 12.0579 6.16134 12.0772C6.08627 12.0783 6.011 12.0811 5.93613 12.0879C5.89196 12.0901 5.84966 12.1055 5.81542 12.132C5.78118 12.1584 5.75679 12.1946 5.74581 12.2351C5.73464 12.269 5.72033 12.3022 5.71151 12.3367C5.61076 12.7285 5.51073 13.1204 5.41142 13.5124C5.39712 13.5699 5.39026 13.6292 5.38163 13.6878C5.3736 13.7411 5.42612 13.809 5.47963 13.8236C5.55264 13.8411 5.62777 13.8494 5.70308 13.8483C6.05413 13.8546 6.40537 13.8633 6.75641 13.8651C8.03574 13.872 9.31507 13.8718 10.5944 13.8575C11.3344 13.8494 12.0744 13.8446 12.8143 13.8431C13.4163 13.8431 14.0184 13.8494 14.6203 13.854C14.8085 13.8555 14.9965 13.86 15.1846 13.8642C15.3476 13.8698 15.51 13.8852 15.6709 13.9102C16.1562 13.9804 16.6268 14.1043 17.0898 14.2555C17.5517 14.4078 18.0049 14.5826 18.4475 14.7793C19.3687 15.1852 20.2594 15.6503 21.1132 16.1716C21.2606 16.2616 21.4049 16.3569 21.5489 16.4511C21.5895 16.4788 21.6275 16.5098 21.6624 16.5437C21.699 16.577 21.7205 16.6224 21.7224 16.6704C21.7261 16.7176 21.7257 16.7651 21.7212 16.8123C21.6965 16.9886 21.675 17.1656 21.6395 17.3402C21.592 17.573 21.5327 17.8036 21.4413 18.0261C21.4141 18.092 21.3798 18.1558 21.3468 18.2194C21.3233 18.2646 21.2428 18.3017 21.1875 18.2961C21.1626 18.2937 21.1373 18.2932 21.1126 18.2896C20.8747 18.2555 20.651 18.1784 20.4358 18.0802C20.2326 17.9875 20.0303 17.8919 19.8343 17.7866C19.4744 17.5932 19.1185 17.3936 18.7629 17.1934C18.3748 16.9749 17.982 16.7643 17.5802 16.5697C17.1345 16.3514 16.6719 16.1655 16.1964 16.0136C15.6939 15.8555 15.1803 15.7528 14.6493 15.7373C14.4614 15.7317 14.2734 15.7213 14.0852 15.7196C13.107 15.7111 12.1287 15.6987 11.1505 15.6987C9.69551 15.6987 8.24056 15.7085 6.78581 15.7139C6.32167 15.7158 5.85779 15.7175 5.39418 15.7191C5.30637 15.7191 5.21777 15.7209 5.13094 15.7248C5.09337 15.7271 5.05615 15.733 5.01981 15.7423C4.98919 15.7482 4.96061 15.7613 4.93666 15.7803C4.91271 15.7993 4.89413 15.8236 4.8826 15.8511C4.87278 15.8729 4.86427 15.8952 4.85712 15.918C4.7339 16.3654 4.61127 16.8131 4.48922 17.2611C4.48268 17.296 4.4794 17.3313 4.47942 17.3667C4.47707 17.4012 4.53077 17.4668 4.56547 17.4729C4.58964 17.4791 4.61428 17.4834 4.63916 17.4859C4.72697 17.4885 4.81557 17.4904 4.9024 17.4896C5.40417 17.4846 5.90575 17.4783 6.40733 17.4735C6.70839 17.4705 7.00946 17.4735 7.31052 17.4672C8.07468 17.451 8.83936 17.4453 9.60456 17.45Z" fill="black"/>
<path d="M11.6333 46.747C11.636 47.3818 11.6385 48.0166 11.6407 48.6515C11.6407 48.7169 11.652 48.7825 11.6301 48.8478C11.6252 48.8624 11.5796 48.8805 11.5383 48.8825C11.5017 48.8851 11.4647 48.8871 11.4274 48.8885C11.3394 48.8898 11.2505 48.89 11.1634 48.89C10.8619 48.89 10.5601 48.89 10.2578 48.89C9.31415 48.89 8.37085 48.89 7.42794 48.89C7.30231 48.89 7.17649 48.892 7.05145 48.8857C7.02075 48.8838 6.99257 48.8789 6.9706 48.8716C6.94864 48.8644 6.93391 48.8552 6.92837 48.8451C6.92719 48.8411 6.92208 48.8371 6.9213 48.8331C6.91913 48.8208 6.91736 48.8085 6.91717 48.7963C6.91717 48.7594 6.91717 48.7225 6.91717 48.6857C6.91717 47.4161 6.91658 46.1465 6.9154 44.8769C6.9154 44.8114 6.91304 44.7458 6.91284 44.6803C6.91284 44.6681 6.91815 44.6558 6.9209 44.6436C6.92444 44.6279 6.96769 44.6112 7.01075 44.6085C7.18364 44.5976 7.35922 44.5919 7.53529 44.5915C7.78694 44.5909 8.03839 44.5897 8.28985 44.5896C9.24573 44.589 10.2016 44.5886 11.1575 44.5886C11.2703 44.5886 11.3832 44.5907 11.496 44.5926C11.5519 44.5936 11.6128 44.6151 11.6156 44.634C11.6195 44.6626 11.6236 44.6916 11.624 44.7199C11.6254 44.8591 11.6252 44.9984 11.6258 45.1376C11.6287 45.6741 11.6317 46.2107 11.6348 46.7472L11.6333 46.747Z" fill="black"/>
<path d="M14.5494 46.7452C14.5494 46.9251 14.5494 47.1049 14.5494 47.2848C14.5507 47.7671 14.5519 48.2495 14.5532 48.7318C14.5532 48.7726 14.5627 48.8134 14.5403 48.8541C14.5328 48.8678 14.4794 48.885 14.4344 48.886C14.408 48.8868 14.3822 48.8889 14.3558 48.8894C14.3162 48.8901 14.2761 48.8903 14.2364 48.8903C13.8508 48.8903 13.4654 48.8903 13.0801 48.8903C12.9607 48.8903 12.8412 48.8899 12.7234 48.882C12.6915 48.8795 12.6628 48.8741 12.6411 48.8666C12.6193 48.859 12.6057 48.8495 12.6019 48.8395C12.6002 48.8313 12.5969 48.8232 12.5965 48.815C12.5951 48.7945 12.5944 48.7741 12.5942 48.7537C12.5963 48.5248 12.5877 48.2959 12.5685 48.0671C12.5599 47.969 12.5604 47.8708 12.5601 47.7727C12.5593 47.2658 12.5593 46.7588 12.5601 46.2518C12.559 45.7572 12.5569 45.2626 12.5537 44.768C12.5537 44.7354 12.5552 44.7027 12.5572 44.6699C12.5572 44.6618 12.5641 44.6538 12.567 44.6456C12.5743 44.6265 12.6351 44.6058 12.6916 44.603C12.7305 44.6004 12.7699 44.5986 12.8094 44.5974C13.314 44.591 13.8188 44.588 14.3238 44.5886C14.3502 44.5892 14.3765 44.5902 14.4026 44.5916C14.4456 44.5931 14.5052 44.6101 14.5108 44.6235C14.5214 44.6436 14.5284 44.6639 14.5316 44.6842C14.5361 44.8109 14.5401 44.9376 14.5407 45.0643C14.5431 45.5344 14.5445 46.0045 14.5451 46.4746C14.5451 46.5645 14.5451 46.6544 14.5451 46.7444L14.5494 46.7452Z" fill="black"/>
<path d="M16.7252 41.2238C16.7217 41.3078 16.7197 41.3671 16.7164 41.4261C16.7011 41.6974 16.6968 41.7251 16.6102 41.9821C16.5406 42.1991 16.402 42.3905 16.2134 42.5304C16.1241 42.5952 16.0238 42.6454 15.9169 42.6787C15.6517 42.7662 15.4237 42.6973 15.2171 42.5388C15.0374 42.4009 14.9198 42.2201 14.8447 42.0153C14.7836 41.8594 14.7535 41.6942 14.7557 41.528C14.7573 41.4806 14.7577 41.4333 14.7573 41.3858C14.755 41.0932 14.8532 40.8274 15.0029 40.5764C15.0831 40.4414 15.1968 40.327 15.3342 40.2427C15.418 40.1911 15.5038 40.1422 15.5915 40.0961C15.6685 40.0561 15.7523 40.0289 15.8391 40.0157C16.0674 39.9803 16.2597 40.0435 16.4114 40.2097C16.4442 40.2456 16.4731 40.2844 16.4977 40.3258C16.6086 40.5135 16.6835 40.713 16.7021 40.9291C16.7107 41.0364 16.7186 41.1421 16.7252 41.2238Z" fill="black"/>
<path d="M5.28577 43.4461C5.25013 43.4435 5.21479 43.4381 5.18012 43.4299C4.91672 43.3494 4.68317 43.1993 4.50703 42.9973C4.39314 42.8713 4.29936 42.7303 4.22869 42.5786C4.14049 42.3825 4.05836 42.1845 4.04601 41.9678C4.04512 41.9442 4.04144 41.9208 4.03504 41.898C3.96643 41.6785 3.9682 41.4531 3.98447 41.2294C4.01132 40.862 4.08835 40.5033 4.24692 40.1645C4.36453 39.9126 4.52721 39.6905 4.75556 39.5157C4.79558 39.4878 4.83734 39.4621 4.88062 39.4388C4.90492 39.4245 4.97059 39.4303 4.98411 39.4516C4.99598 39.4718 5.00269 39.4943 5.00371 39.5174C5.00513 39.541 5.00098 39.5646 4.99156 39.5865C4.96257 39.6521 4.94707 39.7222 4.94589 39.7932C4.94217 39.8878 4.93393 39.9812 4.90022 40.0722C4.88682 40.1176 4.8779 40.1641 4.87356 40.211C4.86958 40.2344 4.86755 40.258 4.86749 40.2816C4.86749 40.4017 4.79633 40.5078 4.79339 40.6277C4.79284 40.734 4.77829 40.8399 4.75008 40.9428C4.73483 41.0001 4.72583 41.0587 4.72322 41.1178C4.70558 41.3654 4.70166 41.6136 4.70793 41.8618C4.7131 42.0035 4.73949 42.1437 4.78634 42.2783C4.86611 42.5182 4.98078 42.7382 5.16071 42.9252C5.23637 43.004 5.31439 43.0805 5.39004 43.1593C5.41424 43.1862 5.43695 43.2143 5.45806 43.2435C5.50687 43.3072 5.44963 43.4264 5.36496 43.4375C5.34065 43.4412 5.31576 43.4431 5.28577 43.4461Z" fill="black"/>
<path d="M42.304 46.768C39.296 46.768 36.64 45.92 34.336 44.224C32.032 42.528 30.416 40.128 29.488 37.024L35.584 34.624C36.064 36.448 36.88 37.904 38.032 38.992C39.184 40.08 40.624 40.624 42.352 40.624C43.792 40.624 45.024 40.272 46.048 39.568C47.072 38.832 47.584 37.824 47.584 36.544C47.584 35.264 47.088 34.224 46.096 33.424C45.136 32.592 43.408 31.712 40.912 30.784L38.8 30.016C36.592 29.248 34.704 28.08 33.136 26.512C31.568 24.912 30.784 22.912 30.784 20.512C30.784 18.72 31.248 17.088 32.176 15.616C33.104 14.144 34.416 12.992 36.112 12.16C37.808 11.296 39.728 10.864 41.872 10.864C44.976 10.864 47.424 11.6 49.216 13.072C51.008 14.512 52.24 16.208 52.912 18.16L47.2 20.56C46.848 19.504 46.224 18.624 45.328 17.92C44.464 17.184 43.344 16.816 41.968 16.816C40.56 16.816 39.392 17.152 38.464 17.824C37.568 18.464 37.12 19.312 37.12 20.368C37.12 21.392 37.552 22.272 38.416 23.008C39.28 23.712 40.704 24.4 42.688 25.072L44.848 25.792C47.824 26.816 50.096 28.176 51.664 29.872C53.264 31.536 54.064 33.728 54.064 36.448C54.064 38.688 53.488 40.592 52.336 42.16C51.184 43.696 49.696 44.848 47.872 45.616C46.08 46.384 44.224 46.768 42.304 46.768ZM60.2016 7.984H65.9616V51.76H60.2016V7.984ZM73.8423 11.632H80.3223V26.368H80.7063L93.2823 11.632H101.106V12.016L88.6743 26.224L102.402 45.616V46H94.4823L84.2103 31.36L80.3223 35.92V46H73.8423V11.632Z" fill="black"/>
</svg>
