<svg width="96" height="96" viewBox="0 0 96 96" fill="none" xmlns="http://www.w3.org/2000/svg">
<g clip-path="url(#clip0)">
<path d="M79.7417 18.0694C79.3073 17.9114 78.8333 17.9114 78.3988 18.0694L57.7215 25.5346L24.0493 37.6803C23.0223 38.0555 22.4891 39.1615 22.8643 40.1884C28.7693 57.0147 42.0012 70.2268 58.8077 76.1318C59.8346 76.4873 60.9603 75.9541 61.3158 74.9468L66.5296 60.5102L73.4615 41.2746L80.9267 20.5973C81.3019 19.5704 80.7687 18.4447 79.7417 18.0694ZM58.2745 71.7277C44.0749 66.1585 32.8376 54.9213 27.2684 40.7216L38.2094 36.7718C43.6996 46.9624 52.0337 55.3162 62.2243 60.8065L58.2745 71.7277ZM63.587 57.0542C54.4826 52.0181 46.9977 44.5332 41.9617 35.4289L57.682 29.7609C60.9801 34.1452 64.8707 38.0358 69.255 41.3339L63.587 57.0542ZM70.6572 37.4235C67.2801 34.7574 64.2387 31.7161 61.5726 28.339L75.7919 23.2239L70.6572 37.4235Z" fill="black"/>
<path d="M20.2375 55.81C20.0993 55.3755 19.8623 55.0003 19.5068 54.7435L15.9124 51.9787L16.2482 47.2586C16.3272 46.1724 15.4977 45.2245 14.4115 45.1455C13.9573 45.106 13.503 45.2442 13.1278 45.5009L9.21749 48.3053L4.81344 46.7056C3.78649 46.3304 2.66079 46.8636 2.28556 47.8906C2.14731 48.2856 2.12757 48.7201 2.24606 49.115L3.51 53.4993L0.448892 57.2517C-0.242327 58.1009 -0.123832 59.3451 0.725379 60.0363C1.06111 60.3128 1.49559 60.4708 1.94982 60.4905L6.68961 60.5695L9.11875 64.3416C9.47423 64.9143 10.1062 65.25 10.7777 65.25C10.8567 65.25 10.9159 65.2501 10.9949 65.2303C11.7454 65.1513 12.3774 64.6576 12.6341 63.9466L14.2535 59.5228L18.8551 58.2391C19.9018 57.9429 20.514 56.8567 20.2375 55.81ZM12.1996 55.968C11.5874 56.1457 11.0937 56.5999 10.8764 57.1924L10.2839 58.8316L9.43473 57.5282C9.07925 56.9752 8.46703 56.6394 7.81531 56.6197L6.09714 56.5802L7.24258 55.178C7.65732 54.6843 7.79556 54.0128 7.61782 53.3808L7.14384 51.7417L8.86201 52.3736C9.47423 52.5909 10.1655 52.5119 10.6987 52.1169L12.0416 51.1689L11.9231 52.7489C11.8836 53.4203 12.1601 54.0523 12.6933 54.4473L13.9968 55.4545L12.1996 55.968Z" fill="white"/>
<path d="M83.3755 79.5682C83.0398 78.8967 82.3485 78.4622 81.5783 78.4425H76.9768L74.5674 74.6309C74.1724 73.9989 73.4417 73.6632 72.711 73.7422C71.9605 73.8212 71.3286 74.3149 71.0521 75.0061L69.3339 79.4694L64.8114 80.7531C63.7647 81.0493 63.1524 82.1355 63.4487 83.1822C63.5672 83.597 63.8042 83.9525 64.1399 84.2092L67.7342 86.9741L67.3985 91.6941C67.3195 92.7803 68.149 93.7283 69.2352 93.8073C69.6894 93.8468 70.1239 93.7085 70.4991 93.4518L74.4094 90.7264L78.7147 92.3261C79.7417 92.7013 80.8674 92.1878 81.2623 91.1609C81.4006 90.7857 81.4203 90.3709 81.3216 89.9759L80.1367 85.4534L83.1385 81.6813C83.6125 81.0691 83.6915 80.2594 83.3755 79.5682ZM76.0486 85.5324L76.5226 87.3296L74.8241 86.6976C74.2119 86.4803 73.5405 86.5593 73.0072 86.9346L71.6445 87.8825L71.763 86.2236C71.8025 85.5521 71.526 84.9202 70.9928 84.5252L69.6696 83.518L71.3681 83.044C71.9605 82.8663 72.4543 82.4318 72.6715 81.8591L73.3232 80.1606L74.2119 81.5628C74.5674 82.1355 75.1994 82.4713 75.8906 82.4515H77.4903L76.4238 83.8142C76.0288 84.2684 75.8906 84.9202 76.0486 85.5324Z" fill="white"/>
<path d="M43.6005 18.8396C43.4425 18.4249 43.1463 18.0694 42.771 17.8522L38.841 15.502L38.683 10.9992C38.6435 9.91303 37.735 9.06382 36.6291 9.10331C36.1946 9.12306 35.7799 9.28105 35.4639 9.53779L31.7905 12.5002L27.1693 11.2955C26.1226 11.019 25.0364 11.6509 24.7599 12.7174C24.6611 13.1321 24.6809 13.5469 24.8389 13.9418L26.5175 18.1287L23.9107 21.9007C23.2984 22.7894 23.5157 24.0336 24.4241 24.6459C24.7796 24.9223 25.2338 25.0408 25.6881 25.0211L30.4279 24.6854L33.2915 28.3192C33.9629 29.1684 35.2071 29.3264 36.0564 28.6352C36.3921 28.3784 36.6291 28.0032 36.7476 27.5885L37.9325 23.0857L42.4551 21.3873C43.482 20.9923 43.9955 19.8666 43.6005 18.8396ZM35.6021 19.7283C35.0096 19.9456 34.5554 20.459 34.3974 21.0713L33.9629 22.7302L32.8965 21.3873C32.5213 20.9133 31.9485 20.6368 31.3561 20.6368C31.3166 20.6368 31.2573 20.6368 31.2178 20.6368L29.5194 20.7553L30.3884 19.4913C30.7438 18.9581 30.8228 18.2669 30.5859 17.6547L29.9736 16.1142L31.7708 16.5882C32.383 16.7462 33.0347 16.608 33.5087 16.213L34.8714 15.0873L34.9307 16.7067C34.9504 17.3782 35.3256 17.9904 35.8984 18.3261L37.2413 19.1161L35.6021 19.7283Z" fill="white"/>
<path d="M95.4224 45.1257C94.6127 44.3752 93.3685 44.3752 92.5983 45.1455C92.1045 45.6392 91.749 45.6589 90.7023 45.6589C89.4977 45.6589 87.7005 45.6589 86.0218 47.3179C84.3431 48.9965 84.3431 50.8135 84.3431 51.9984C84.3431 53.0451 84.3234 53.4006 83.8297 53.8943C83.3359 54.388 82.9607 54.4078 81.9337 54.4078C80.729 54.4078 78.9319 54.4078 77.2532 56.0865C75.5745 57.7651 75.5745 59.5821 75.5745 60.767C75.5745 61.794 75.5548 62.1692 75.0611 62.6629C74.2908 63.4331 74.2908 64.6773 75.0611 65.4475C75.8313 66.2178 77.0755 66.2178 77.8457 65.4475C79.5244 63.7689 79.5244 61.952 79.5244 60.767C79.5244 59.7401 79.5441 59.3648 80.0378 58.8711C80.5316 58.3774 80.887 58.3576 81.9337 58.3576C83.1384 58.3576 84.9356 58.3576 86.634 56.6789C88.3127 55.0003 88.3127 53.1833 88.3127 51.9984C88.3127 50.9715 88.3325 50.5962 88.8262 50.1025C89.3199 49.6088 89.6951 49.589 90.7221 49.589C91.9268 49.589 93.7437 49.589 95.4224 47.9103C96.1926 47.1401 96.1926 45.8959 95.4224 45.1257Z" fill="white"/>
<path d="M69.0574 2.76388C68.2872 1.99366 67.043 1.99366 66.2728 2.76388C65.7791 3.25761 65.4236 3.27736 64.3769 3.27736C63.1722 3.27736 61.375 3.27736 59.6964 4.95603C58.0177 6.6347 58.0177 8.45162 58.0177 9.63657C58.0177 10.6635 57.9979 11.0388 57.5042 11.5325C57.0105 12.0262 56.655 12.046 55.6083 12.046C54.4036 12.046 52.6064 12.046 50.9278 13.7246C50.1575 14.4948 50.1575 15.739 50.9278 16.5093C51.2832 16.8647 51.7967 17.082 52.3102 17.082C52.8237 17.082 53.3371 16.8845 53.7124 16.5093C54.2061 16.0155 54.5813 15.9958 55.6083 15.9958C56.813 15.9958 58.6102 15.9958 60.2888 14.3171C61.9675 12.6384 61.9675 10.8215 61.9675 9.63657C61.9675 8.58987 61.9872 8.23438 62.481 7.74065C62.9747 7.24693 63.3302 7.22718 64.3769 7.22718C65.5816 7.22718 67.3787 7.22718 69.0574 5.5485C69.8276 4.77829 69.8276 3.53409 69.0574 2.76388Z" fill="white"/>
<path d="M43.1859 76.1318C42.4354 75.3814 41.1912 75.3814 40.421 76.1318C39.9273 76.6255 39.5718 76.6453 38.5251 76.6453C37.3204 76.6453 35.5232 76.6453 33.8445 78.324C32.1658 80.0026 32.1658 81.8196 32.1658 83.0045C32.1658 84.0315 32.1461 84.4067 31.6524 84.9004C31.1586 85.3941 30.8032 85.4139 29.7565 85.4139C28.5518 85.4139 26.7546 85.4139 25.0759 87.0926C24.3057 87.8628 24.2859 89.107 25.0562 89.8772C25.8264 90.6474 27.0706 90.6671 27.8408 89.8969C27.8408 89.8969 27.8408 89.8969 27.8605 89.8772C28.3543 89.3835 28.7295 89.3637 29.7565 89.3637C30.9612 89.3637 32.7583 89.3637 34.437 87.685C36.1157 86.0064 36.1157 84.1894 36.1157 83.0045C36.1157 81.9578 36.1354 81.6023 36.6292 81.1086C37.1229 80.6149 37.4784 80.5951 38.5251 80.5951C39.7298 80.5951 41.5269 80.5951 43.2056 78.9164C43.9758 78.1462 43.9758 76.8823 43.1859 76.1318Z" fill="white"/>
</g>
<defs>
<clipPath id="clip0">
<rect width="96" height="96" fill="white"/>
</clipPath>
</defs>
</svg>
