<svg width="73" height="73" viewBox="0 0 73 73" fill="none" xmlns="http://www.w3.org/2000/svg">
<g clip-path="url(#clip0)">
<path d="M70.5713 16.7234C69.1141 15.1968 67.1017 14.2947 64.8118 14.2947H53.2928V14.1559C53.2928 12.4211 52.5989 10.7557 51.4192 9.64542C50.2395 8.46577 48.6435 7.77185 46.9087 7.77185H26.0913C24.2871 7.77185 22.6911 8.46577 21.5114 9.64542C20.3317 10.8251 19.6378 12.4211 19.6378 14.1559V14.2947H8.18821C5.89829 14.2947 3.88593 15.1968 2.42871 16.7234C0.971483 18.1806 0 20.2623 0 22.4829V57.0399C0 59.3298 0.902091 61.3422 2.42871 62.7994C3.88593 64.2566 5.96768 65.2281 8.18821 65.2281H64.8118C67.1017 65.2281 69.1141 64.326 70.5713 62.7994C72.0285 61.3422 73 59.2604 73 57.0399V22.4829C73 20.193 72.0979 18.1806 70.5713 16.7234ZM69.3916 57.0399H69.3223C69.3223 58.289 68.8365 59.3992 68.0038 60.2319C67.1711 61.0646 66.0608 61.5504 64.8118 61.5504H8.18821C6.93916 61.5504 5.8289 61.0646 4.9962 60.2319C4.1635 59.3992 3.67776 58.289 3.67776 57.0399V22.4829C3.67776 21.2338 4.1635 20.1236 4.9962 19.2909C5.8289 18.4582 6.93916 17.9724 8.18821 17.9724H21.5808C22.6217 17.9724 23.4544 17.1397 23.4544 16.0988V14.0865C23.4544 13.3232 23.7319 12.6293 24.2177 12.1435C24.7034 11.6578 25.3973 11.3802 26.1606 11.3802H46.9087C47.6721 11.3802 48.366 11.6578 48.8517 12.1435C49.3375 12.6293 49.615 13.3232 49.615 14.0865V16.0988C49.615 17.1397 50.4477 17.9724 51.4886 17.9724H64.8812C66.1302 17.9724 67.2405 18.4582 68.0732 19.2909C68.9059 20.1236 69.3916 21.2338 69.3916 22.4829V57.0399Z" fill="black"/>
<path d="M36.5 22.691C31.7814 22.691 27.4791 24.634 24.4259 27.6872C21.3033 30.8099 19.4297 35.0427 19.4297 39.7614C19.4297 44.48 21.3727 48.7823 24.4259 51.8355C27.5485 54.9581 31.7814 56.8317 36.5 56.8317C41.2187 56.8317 45.521 54.8887 48.5742 51.8355C51.6968 48.7129 53.5704 44.48 53.5704 39.7614C53.5704 35.0427 51.6274 30.7405 48.5742 27.6872C45.521 24.634 41.2187 22.691 36.5 22.691ZM45.9373 49.268C43.5086 51.6273 40.1778 53.154 36.5 53.154C32.8223 53.154 29.4915 51.6273 27.0628 49.268C24.6341 46.8393 23.1768 43.5085 23.1768 39.8308C23.1768 36.153 24.7035 32.8222 27.0628 30.3935C29.4915 27.9648 32.8223 26.5076 36.5 26.5076C40.1778 26.5076 43.5086 28.0342 45.9373 30.3935C48.366 32.8222 49.8232 36.153 49.8232 39.8308C49.8926 43.5085 48.366 46.8393 45.9373 49.268Z" fill="black"/>
<path d="M61.2034 29.4221C63.0813 29.4221 64.6036 27.8998 64.6036 26.0219C64.6036 24.144 63.0813 22.6217 61.2034 22.6217C59.3255 22.6217 57.8032 24.144 57.8032 26.0219C57.8032 27.8998 59.3255 29.4221 61.2034 29.4221Z" fill="#FDAB2D"/>
</g>
<defs>
<clipPath id="clip0">
<rect width="73" height="73" fill="white"/>
</clipPath>
</defs>
</svg>
