<svg width="80" height="80" viewBox="0 0 80 80" fill="none" xmlns="http://www.w3.org/2000/svg">
<g clip-path="url(#clip0)">
<path d="M17.3331 8.00085H21.3334C22.0695 8.00085 22.6664 7.40393 22.6664 6.66724C22.6664 5.93115 22.0695 5.33423 21.3334 5.33423H17.3331C16.5964 5.33423 15.9995 5.93115 15.9995 6.66724C15.9995 7.40393 16.5964 8.00085 17.3331 8.00085Z" fill="black"/>
<path d="M12.0001 5.33423C8.95928 5.33362 6.30425 7.3905 5.54375 10.3342C5.36003 11.0471 5.7885 11.774 6.50139 11.9584C6.61065 11.9864 6.72295 12.0011 6.83587 12.0005C7.44622 12.0035 7.98089 11.5915 8.13347 11.0007C8.5888 9.23681 10.1782 8.0039 12.0001 8.00085C12.7361 8.00085 13.3331 7.40393 13.3331 6.66724C13.3331 5.93115 12.7361 5.33423 12.0001 5.33423Z" fill="black"/>
<path d="M5.55721 59.4073C5.96614 60.0195 6.79377 60.1849 7.40656 59.7766L9.99991 58.0432C10.4034 57.7734 10.9295 57.7734 11.3335 58.0432L12.517 58.8324C13.817 59.7003 15.5119 59.7003 16.812 58.8324L17.9985 58.0432C18.4019 57.7734 18.928 57.7734 19.3321 58.0432L20.5156 58.8324C21.8156 59.7003 23.5105 59.7003 24.8106 58.8324L25.9971 58.0432C26.4005 57.7734 26.9266 57.7734 27.3307 58.0432L29.9222 59.7766C30.535 60.1849 31.3632 60.0195 31.7715 59.4073C32.1805 58.7946 32.0151 57.9663 31.4023 57.558L28.8102 55.8246C27.5107 54.9561 25.8158 54.9561 24.5158 55.8246L23.3292 56.6138C22.9258 56.8836 22.3991 56.8836 21.9956 56.6138L20.8116 55.8246C19.5121 54.9561 17.8172 54.9561 16.5172 55.8246L15.3307 56.6138C14.9272 56.8836 14.4005 56.8836 13.9971 56.6138L12.813 55.8246C11.5136 54.9561 9.81864 54.9561 8.5186 55.8246L5.92525 57.558C5.31307 57.9669 5.14828 58.7946 5.55721 59.4073Z" fill="#FDAB2D"/>
<path d="M10.0731 49.1094L12.6664 47.3761C13.0699 47.1069 13.596 47.1069 14 47.3761L15.1835 48.1658C16.4835 49.0338 18.1785 49.0338 19.4785 48.1658L20.665 47.3761C21.0685 47.1069 21.5946 47.1069 21.9986 47.3761L23.1821 48.1658C24.4821 49.0338 26.177 49.0338 27.4771 48.1658L28.6636 47.3761C29.067 47.1069 29.5932 47.1069 29.9972 47.3761L32.5887 49.1094C33.2015 49.5184 34.0298 49.353 34.4381 48.7402C34.847 48.1274 34.6816 47.2998 34.0688 46.8908L31.4767 45.1575C30.1773 44.2896 28.4823 44.2896 27.1823 45.1575L25.9958 45.9472C25.5923 46.2164 25.0656 46.2164 24.6622 45.9472L23.4781 45.1575C22.1787 44.2896 20.4837 44.2896 19.1837 45.1575L17.9972 45.9472C17.5938 46.2164 17.067 46.2164 16.6636 45.9472L15.4795 45.1575C14.1801 44.2896 12.4852 44.2896 11.1851 45.1575L8.59177 46.8908C7.97899 47.2998 7.81358 48.1274 8.22251 48.7402C8.63145 49.353 9.45907 49.5184 10.0719 49.1094H10.0731Z" fill="#FDAB2D"/>
<path d="M14.0733 39.7766L16.6667 38.0432C17.0701 37.7734 17.5962 37.7734 17.9997 38.0432L19.1837 38.8324C20.4838 39.7003 22.1787 39.7003 23.4781 38.8324L24.6653 38.0432C25.0687 37.7734 25.5948 37.7734 25.9983 38.0432L27.1823 38.8324C28.4824 39.7003 30.1773 39.7003 31.4767 38.8324L32.6638 38.0432C33.0673 37.7734 33.5934 37.7734 33.9968 38.0432L36.589 39.7766C37.2018 40.1849 38.0294 40.0195 38.4383 39.4073C38.8473 38.7946 38.6818 37.9663 38.0691 37.558L35.4769 35.8246C34.1769 34.9561 32.4826 34.9561 31.1825 35.8246L29.9954 36.6138C29.592 36.8836 29.0659 36.8836 28.6624 36.6138L27.4783 35.8246C26.1783 34.9561 24.484 34.9561 23.184 35.8246L21.9968 36.6138C21.5934 36.8836 21.0673 36.8836 20.6638 36.6138L19.4798 35.8246C18.1797 34.9561 16.4848 34.9561 15.1854 35.8246L12.592 37.558C11.9792 37.9663 11.8138 38.7946 12.2228 39.4073C12.6311 40.0195 13.4593 40.1849 14.0721 39.7766H14.0733Z" fill="#FDAB2D"/>
<path d="M0 61.3339C0 71.1031 8.26652 80.0007 17.3332 80.0007H55.9992C61.192 79.9537 65.9314 77.0351 68.3099 72.419C70.1446 68.5781 69.5165 64.4314 66.5393 60.7486C64.3493 57.8635 60.9753 56.1191 57.3554 56.0007C57.3475 56.0007 57.3407 56.0007 57.3328 56.0007H42.6314C43.304 53.9573 44.1805 51.9871 45.2474 50.1194C48.8783 47.3222 52.693 44.7722 56.6663 42.4865C72.7288 33.117 79.4658 23.8331 79.7459 23.4425C79.7715 23.3991 79.7947 23.3546 79.8155 23.3088C79.8369 23.2728 79.8564 23.2355 79.8741 23.1971C79.9406 23.0598 79.9827 22.9115 79.9992 22.7595C79.9998 22.7522 79.9998 22.7448 79.9992 22.7369C80.0041 22.5868 79.9839 22.4366 79.9394 22.2932C79.9327 22.2718 79.9394 22.2517 79.9315 22.2315C79.9229 22.212 79.907 22.1974 79.8979 22.1772C79.8869 22.1363 79.8729 22.096 79.8564 22.057C79.8082 21.9685 79.7502 21.8861 79.683 21.8104C79.6727 21.797 79.6647 21.7811 79.6537 21.7689C79.5494 21.6602 79.4273 21.5705 79.2924 21.5022C79.2564 21.4839 79.2192 21.4704 79.1807 21.4546C79.0715 21.4082 78.9567 21.377 78.8389 21.3624C78.7993 21.3624 78.7633 21.349 78.7218 21.3465C78.7047 21.3465 78.6888 21.3465 78.6711 21.3465C74.5189 21.3221 70.3808 21.8257 66.3555 22.8449C68.2574 19.5442 69.2822 15.8107 69.3328 12.0009C69.3255 5.37684 63.9569 0.00885002 57.3328 0.00152588H12C5.37226 0.00152588 0 5.37379 0 12.0009C0 18.6287 5.37226 24.0009 12 24.0009H13.513C12.3021 26.6858 10.9087 29.2841 9.34256 31.7786C4.96394 39.1051 0 47.4113 0 61.3339H0ZM64.4659 62.4246C67.4072 66.0647 66.8658 69.2446 65.9033 71.2697C63.9569 74.9477 60.1605 77.2725 55.9992 77.3341C55.3504 77.3268 54.7022 77.2823 54.0583 77.2005C53.8953 77.1803 53.733 77.1645 53.57 77.1407C52.9865 77.0558 52.4079 76.9386 51.8366 76.7909C51.6621 76.7458 51.49 76.6914 51.3166 76.6408C50.8076 76.49 50.3077 76.3222 49.8237 76.1244C49.7407 76.0927 49.6571 76.0646 49.5741 76.0298C48.9619 75.7698 48.368 75.4695 47.7955 75.1314L47.7663 75.1137C45.4518 73.7709 43.6013 71.755 42.4611 69.3337H44.2757C44.3355 69.3337 44.3917 69.3209 44.4515 69.3179C46.2666 69.2544 47.8041 67.9598 48.1758 66.1819C48.2301 65.9072 48.329 65.6485 48.4059 65.3903C48.4834 65.1315 48.5396 64.8501 48.6397 64.5901C48.6622 64.5328 48.6982 64.4833 48.722 64.4259C49.8719 61.6898 52.2517 59.661 55.1356 58.9597C55.3168 58.9139 55.4902 58.8474 55.6769 58.8138C55.9247 58.7687 56.1835 58.7674 56.4368 58.7418C56.7341 58.7143 57.0246 58.6637 57.3285 58.6637C60.1532 58.7772 62.7759 60.159 64.4659 62.4246ZM41.9063 58.6673H49.7981C47.9756 60.1383 46.6237 62.1109 45.9102 64.3417C45.8821 64.4327 45.8461 64.5193 45.8192 64.6084C45.782 64.7329 45.757 64.8636 45.7246 64.9899C45.6703 65.2023 45.6105 65.411 45.5678 65.6271C45.4402 66.2167 44.9263 66.6421 44.3233 66.6568C44.3062 66.6568 44.2916 66.6647 44.2745 66.6647H41.6079C41.6079 66.6311 41.5969 66.5969 41.5902 66.5634C41.5145 66.1795 41.4571 65.7937 41.4132 65.4074C41.3649 64.9514 41.3332 64.4845 41.3332 64.0005C41.3332 63.19 41.3839 62.3874 41.4663 61.5848C41.4809 61.4237 41.498 61.2619 41.5169 61.1008C41.6079 60.2927 41.733 59.4834 41.9063 58.6673ZM69.6551 24.8102C59.3683 29.2157 50.1832 35.8416 42.7584 44.2143C47.4135 35.9143 54.9091 29.5746 63.8659 26.3611C63.9215 26.3355 63.9746 26.3062 64.0259 26.2732C65.866 25.6544 67.7471 25.1661 69.6551 24.8102ZM55.3327 40.1824C50.8943 42.7245 46.6542 45.5986 42.6491 48.7797L42.5478 48.8609C47.7156 42.0195 57.3475 32.6306 74.1552 25.7941C68.554 31.4117 62.2235 36.2512 55.3327 40.1824ZM2.6666 12.0009C2.6727 6.84899 6.84747 2.67362 12 2.66813H49.7981L49.7566 2.70536C49.4368 2.96597 49.1298 3.24246 48.838 3.53482C48.7929 3.57998 48.7544 3.63064 48.705 3.67581C48.462 3.92788 48.2277 4.18667 48.0073 4.45888C47.917 4.56813 47.8371 4.68654 47.7516 4.80006C47.5874 5.01735 47.4275 5.23585 47.278 5.46656C47.1901 5.60023 47.1089 5.74122 47.0259 5.88098C46.8928 6.1001 46.7689 6.32104 46.653 6.54809C46.5755 6.69885 46.5034 6.85082 46.4314 7.00402C46.3264 7.23351 46.2288 7.46666 46.1366 7.70409C46.0756 7.86278 46.0158 8.02147 45.9621 8.1826C45.8785 8.42918 45.8077 8.68125 45.7393 8.93454C45.6984 9.09323 45.6526 9.2507 45.6166 9.41183C45.5544 9.6932 45.5104 9.98007 45.4677 10.2681C45.4475 10.4079 45.4183 10.5452 45.4036 10.6881C44.9434 14.756 46.6029 18.7751 49.7981 21.3343H12C6.84747 21.3288 2.6727 17.1535 2.6666 12.0009ZM16.4104 24.0009H57.3328C58.0689 24.0009 58.6658 23.404 58.6658 22.6679C58.6658 21.9312 58.0689 21.3343 57.3328 21.3343C52.1784 21.3343 47.9994 17.1559 47.9994 12.0009C47.9994 6.84655 52.1784 2.66813 57.3328 2.66813C62.4872 2.66813 66.6662 6.84655 66.6662 12.0009C66.5331 16.3191 65.1025 20.4969 62.5622 23.9905C62.0288 24.1822 61.5125 24.3903 60.9967 24.6021C42.018 32.3169 36.0794 51.5446 34.9221 56.0953L34.9075 56.1551C34.8648 56.3248 34.8288 56.4701 34.7995 56.594L34.786 56.6501C34.7586 56.7728 34.7342 56.8729 34.7195 56.9437V56.9516C34.7036 57.0218 34.6933 57.0725 34.6914 57.0847C34.6865 57.15 34.6865 57.2153 34.6914 57.2806C34.6865 57.3472 34.6865 57.4131 34.6914 57.4796V57.5516C34.711 57.6279 34.7366 57.7024 34.7689 57.7738C34.7854 57.8312 34.805 57.8873 34.8275 57.9422C34.8843 58.0436 34.9539 58.1369 35.0344 58.2206C35.1535 58.3921 35.3274 58.5184 35.5276 58.5782H35.5435L35.5624 58.5886C35.6869 58.6301 35.8163 58.6527 35.9475 58.6551C35.9609 58.6551 35.9744 58.6618 35.9878 58.6618L35.9994 58.6673C36.0171 58.6673 36.0342 58.6606 36.0519 58.6594C36.1575 58.6563 36.2631 58.6399 36.365 58.6112L36.4224 58.5953C36.437 58.5953 36.4492 58.5794 36.4639 58.5739C36.4785 58.5685 36.4834 58.5636 36.4932 58.5593C36.5664 58.5312 36.6372 58.497 36.705 58.4568C36.7355 58.4366 36.7666 58.4165 36.7971 58.3939C36.8276 58.3713 36.8368 58.3609 36.8569 58.3432C36.9052 58.3023 36.9497 58.2578 36.9906 58.2102C37.0223 58.1742 37.0529 58.1382 37.0822 58.0979C37.1115 58.0582 37.1182 58.0582 37.1316 58.0356L37.1517 58.0045L37.1822 57.9581L37.217 57.9087C37.2476 57.8635 37.286 57.8074 37.3385 57.7353L37.3873 57.6688C37.449 57.5834 37.521 57.4875 37.6089 57.374L37.6675 57.2995C37.7676 57.1659 37.8823 57.0328 38.0141 56.8674L38.0624 56.8113C38.2101 56.6343 38.3755 56.4396 38.5647 56.2259L38.5903 56.1967C39.0462 55.6846 39.6358 55.0651 40.3518 54.365C40.0381 55.2445 39.778 56.1277 39.5516 57.0115C39.3941 57.6304 39.2611 58.2431 39.1518 58.8541C39.0957 59.1538 39.0542 59.4565 39.0078 59.7568C38.9364 60.2127 38.8772 60.6687 38.829 61.1246C38.8033 61.3699 38.7771 61.6165 38.7582 61.8631C38.7038 62.5687 38.666 63.2822 38.666 64.0005C38.669 64.6463 38.7106 65.2908 38.7917 65.9311C38.8265 66.2436 38.8808 66.5444 38.9327 66.846C38.9754 67.0858 39.0224 67.3245 39.0768 67.5631C39.988 71.6756 42.5795 75.2193 46.2221 77.3341H17.3332C9.79482 77.3341 2.6666 69.5577 2.6666 61.3339C2.6666 48.1462 7.42913 40.1769 11.632 33.1451C13.4905 30.2435 15.0896 27.1839 16.4104 24.0009Z" fill="black"/>
</g>
<defs>
<clipPath id="clip0">
<rect width="80" height="80" fill="white"/>
</clipPath>
</defs>
</svg>
