<svg width="1321" height="825" viewBox="0 0 1321 825" fill="none" xmlns="http://www.w3.org/2000/svg">
<path d="M1020.5 70C1019.5 108.667 1033.1 190.6 1095.5 209C1173.5 232 1251 198 1287 170C1323 142 1332 78 1306 57C1280 36 1233.5 44 1207.5 57C1181.5 70 1131.5 21.5 1113.5 13.5C1095.5 5.49998 1026.5 -30 1020.5 70Z" fill="#F5DBCA"/>
<path d="M222.5 623.841C199.911 591.841 129 480.841 68.4998 579.841C7.99983 678.841 -27.9999 750.841 31.0001 801.841C90.0001 852.841 115.612 799.697 158.5 801.841C198.5 803.841 249.299 855.735 265.5 768.841C276.5 709.841 245.088 655.841 222.5 623.841Z" fill="#F5DBCA"/>
</svg>
